<svg width="52" height="36" viewBox="0 0 52 36" fill="none" xmlns="http://www.w3.org/2000/svg">
<rect width="52" height="36" rx="12" fill="white"/>
<rect x="0.5" y="0.5" width="51" height="35" rx="11.5" stroke="#A5A5A5" stroke-opacity="0.2"/>
<path fill-rule="evenodd" clip-rule="evenodd" d="M12.4002 13.3994C13.0986 13.4589 13.7969 13.0426 14.2334 12.5147C14.6626 11.972 14.9463 11.2434 14.8735 10.5C14.2552 10.5297 13.4914 10.9163 13.0549 11.459C12.6548 11.9274 12.3129 12.6857 12.4002 13.3994ZM20.7076 22.975V11.3847H24.9632C27.1601 11.3847 28.695 12.9311 28.695 15.1911C28.695 17.4512 27.131 19.0124 24.905 19.0124H22.4681V22.975H20.7076ZM14.8662 13.5407C14.251 13.5045 13.6896 13.7298 13.2362 13.9117C12.9444 14.0288 12.6973 14.128 12.5093 14.128C12.2983 14.128 12.041 14.0235 11.7521 13.9063C11.3736 13.7526 10.9408 13.5769 10.487 13.5853C9.44674 13.6002 8.47924 14.2024 7.9482 15.1614C6.85704 17.0795 7.6645 19.9194 8.7193 21.4807C9.23578 22.2539 9.85411 23.1014 10.6688 23.0716C11.0273 23.0578 11.2851 22.946 11.552 22.8303C11.8592 22.6971 12.1783 22.5587 12.6766 22.5587C13.1576 22.5587 13.4628 22.6935 13.7557 22.8229C14.0343 22.9459 14.3018 23.064 14.6989 23.0568C15.5427 23.0419 16.0738 22.2836 16.5902 21.5104C17.1476 20.6806 17.3925 19.8707 17.4297 19.7478L17.4341 19.7336C17.4332 19.7327 17.4263 19.7294 17.4142 19.7238C17.2278 19.6366 15.8037 18.9703 15.7901 17.1836C15.7763 15.6839 16.9196 14.924 17.0996 14.8044C17.1106 14.7971 17.1179 14.7922 17.1213 14.7897C16.3938 13.6894 15.259 13.5704 14.8662 13.5407ZM31.9104 23.0642C33.0161 23.0642 34.0418 22.4918 34.5073 21.5848H34.5437V22.975H36.1732V17.2059C36.1732 15.5331 34.8638 14.4551 32.8488 14.4551C30.9792 14.4551 29.5971 15.548 29.5462 17.0497H31.132C31.2629 16.336 31.9104 15.8677 32.7978 15.8677C33.8745 15.8677 34.4782 16.3806 34.4782 17.3248V17.9642L32.2814 18.098C30.2372 18.2244 29.1315 19.0794 29.1315 20.5662C29.1315 22.068 30.2736 23.0642 31.9104 23.0642ZM32.3831 21.6888C31.4447 21.6888 30.8482 21.2279 30.8482 20.5216C30.8482 19.7931 31.4229 19.3693 32.5213 19.3024L34.4781 19.176V19.8302C34.4781 20.9157 33.5761 21.6888 32.3831 21.6888ZM41.578 23.4285C40.8724 25.4581 40.0649 26.1272 38.3482 26.1272C38.2172 26.1272 37.7808 26.1123 37.6789 26.0826V24.6924C37.788 24.7072 38.0572 24.7221 38.1954 24.7221C38.9738 24.7221 39.4102 24.3876 39.6794 23.5177L39.8394 23.0047L36.8569 14.5667H38.6973L40.7706 21.4138H40.8069L42.8802 14.5667H44.6697L41.578 23.4285ZM22.4679 12.9013H24.4975C26.0251 12.9013 26.898 13.734 26.898 15.1986C26.898 16.6632 26.0251 17.5032 24.4902 17.5032H22.4679V12.9013Z" fill="#00002B"/>
</svg>
