<svg width="52" height="36" viewBox="0 0 52 36" fill="none" xmlns="http://www.w3.org/2000/svg">
<rect width="52" height="36" rx="12" fill="white"/>
<rect x="0.5" y="0.5" width="51" height="35" rx="11.5" stroke="#A5A5A5" stroke-opacity="0.2"/>
<path d="M32.9473 7.5C38.5464 7.5 43.0859 12.1359 43.0859 17.8545C43.0859 23.5731 38.5464 28.209 32.9473 28.209C30.437 28.2089 28.1416 27.2749 26.3711 25.7314C24.6005 27.2748 22.3051 28.209 19.7949 28.209C14.196 28.2087 9.65723 23.5729 9.65723 17.8545C9.65723 12.136 14.196 7.50026 19.7949 7.5C22.3049 7.5 24.6006 8.43349 26.3711 9.97656C28.1416 8.43332 30.4372 7.50009 32.9473 7.5Z" fill="#ED0006"/>
<path d="M32.9473 7.5C38.5464 7.50004 43.085 12.1359 43.085 17.8545C43.085 23.5731 38.5464 28.209 32.9473 28.209C30.437 28.209 28.1417 27.2749 26.3711 25.7314C28.5498 23.8323 29.9336 21.0093 29.9336 17.8545C29.9336 14.6995 28.5501 11.8758 26.3711 9.97656C28.1416 8.43337 30.4372 7.5 32.9473 7.5Z" fill="#F9A000"/>
<path d="M26.3711 9.97656C28.5502 11.8757 29.9336 14.6994 29.9336 17.8545C29.9336 21.0094 28.5499 23.8323 26.3711 25.7314C24.1926 23.8323 22.8096 21.0091 22.8096 17.8545C22.8096 14.6996 24.1923 11.8757 26.3711 9.97656Z" fill="#FF5E00"/>
</svg>
