<svg width="52" height="36" viewBox="0 0 52 36" fill="none" xmlns="http://www.w3.org/2000/svg">
<rect width="52" height="36" rx="12" fill="white"/>
<rect x="0.5" y="0.5" width="51" height="35" rx="11.5" stroke="#A5A5A5" stroke-opacity="0.2"/>
<path fill-rule="evenodd" clip-rule="evenodd" d="M14.7083 22.8615H12.3971C12.2389 22.8615 12.1044 22.9775 12.0798 23.1351L11.145 29.1187C11.1264 29.2368 11.217 29.3432 11.3356 29.3432H12.439C12.5972 29.3432 12.7317 29.2272 12.7563 29.0693L13.0085 27.4554C13.0328 27.2974 13.1676 27.1815 13.3254 27.1815H14.0571C15.5796 27.1815 16.4582 26.4376 16.6877 24.9637C16.7911 24.3188 16.6921 23.8121 16.3929 23.4572C16.0645 23.0677 15.4818 22.8615 14.7083 22.8615ZM14.9749 25.0469C14.8486 25.8842 14.2149 25.8842 13.6022 25.8842H13.2535L13.4981 24.3204C13.5127 24.226 13.5938 24.1563 13.6884 24.1563H13.8482C14.2656 24.1563 14.6594 24.1563 14.8628 24.3965C14.984 24.5399 15.0212 24.7527 14.9749 25.0469ZM21.617 25.02H20.5103C20.416 25.02 20.3345 25.0897 20.3199 25.1842L20.271 25.4967L20.1936 25.3835C19.954 25.0323 19.4197 24.915 18.8865 24.915C17.6633 24.915 16.6188 25.8502 16.4153 27.1622C16.3096 27.8165 16.4599 28.4423 16.8276 28.8787C17.1649 29.2799 17.6475 29.4471 18.2216 29.4471C19.2071 29.4471 19.7536 28.8073 19.7536 28.8073L19.7042 29.1179C19.6856 29.2366 19.7762 29.343 19.8941 29.343H20.8911C21.0497 29.343 21.1834 29.227 21.2084 29.0691L21.8066 25.2446C21.8255 25.1269 21.7353 25.02 21.617 25.02ZM20.0742 27.1949C19.9674 27.8333 19.4656 28.2618 18.8256 28.2618C18.5042 28.2618 18.2473 28.1577 18.0824 27.9605C17.9189 27.7647 17.8566 27.4859 17.9087 27.1755C18.0085 26.5425 18.5188 26.1 19.149 26.1C19.4632 26.1 19.7188 26.2054 19.887 26.4043C20.0556 26.6053 20.1226 26.8857 20.0742 27.1949ZM26.3993 25.0199H27.5116C27.6674 25.0199 27.7582 25.1962 27.6697 25.3252L23.9706 30.7161C23.9107 30.8034 23.812 30.8554 23.7066 30.8554H22.5957C22.4394 30.8554 22.348 30.6776 22.4386 30.5483L23.5904 28.9068L22.3654 25.2771C22.323 25.1509 22.4153 25.0199 22.5482 25.0199H23.6411C23.7831 25.0199 23.9083 25.114 23.9493 25.2512L24.5994 27.4434L26.1335 25.1621C26.1935 25.0731 26.2933 25.0199 26.3993 25.0199Z" fill="#253B80"/>
<path fill-rule="evenodd" clip-rule="evenodd" d="M38.458 29.1186L39.4065 23.0256C39.421 22.931 39.5022 22.8614 39.5965 22.8611H40.6643C40.7823 22.8611 40.8728 22.9678 40.8542 23.0859L39.9188 29.0692C39.8944 29.2271 39.7599 29.3432 39.6015 29.3432H38.6478C38.5299 29.3432 38.4394 29.2367 38.458 29.1186ZM31.1937 22.8614H28.8821C28.7243 22.8614 28.5898 22.9775 28.5651 23.135L27.6304 29.1186C27.6118 29.2367 27.7023 29.3432 27.8204 29.3432H29.0065C29.1167 29.3432 29.211 29.262 29.2282 29.1515L29.4935 27.4554C29.5178 27.2973 29.6527 27.1814 29.8105 27.1814H30.5417C32.0645 27.1814 32.943 26.4376 33.1727 24.9636C33.2764 24.3188 33.1768 23.8121 32.8778 23.4571C32.5495 23.0676 31.9673 22.8614 31.1937 22.8614ZM31.4604 25.0468C31.3343 25.8841 30.7006 25.8841 30.0876 25.8841H29.7391L29.9842 24.3204C29.9988 24.2259 30.0791 24.1563 30.1741 24.1563H30.3339C30.751 24.1563 31.1451 24.1563 31.3484 24.3965C31.4698 24.5398 31.5067 24.7527 31.4604 25.0468ZM38.1019 25.02H36.9959C36.9008 25.02 36.8201 25.0896 36.8058 25.1842L36.7569 25.4967L36.6792 25.3835C36.4396 25.0323 35.9057 24.915 35.3724 24.915C34.1492 24.915 33.105 25.8502 32.9015 27.1621C32.7961 27.8165 32.9458 28.4422 33.3135 28.8786C33.6514 29.2798 34.1334 29.447 34.7075 29.447C35.693 29.447 36.2394 28.8073 36.2394 28.8073L36.1901 29.1178C36.1715 29.2366 36.2621 29.343 36.3808 29.343H37.3773C37.5351 29.343 37.6696 29.2269 37.6943 29.069L38.2928 25.2445C38.3111 25.1269 38.2206 25.02 38.1019 25.02ZM36.5592 27.1948C36.453 27.8332 35.9505 28.2617 35.3104 28.2617C34.9897 28.2617 34.7322 28.1577 34.5673 27.9605C34.4037 27.7647 34.3422 27.4858 34.3937 27.1754C34.4939 26.5424 35.0036 26.1 35.6338 26.1C35.9482 26.1 36.2036 26.2053 36.372 26.4042C36.5412 26.6052 36.6082 26.8857 36.5592 27.1948Z" fill="#008AEF"/>
<path d="M23.2616 20.7208L23.5458 18.8987L22.9129 18.8839H19.8906L21.991 5.43814C21.9974 5.39754 22.0186 5.3597 22.0496 5.33282C22.0806 5.30595 22.1203 5.29114 22.1616 5.29114H27.2576C28.9494 5.29114 30.1169 5.64658 30.7265 6.34812C31.0122 6.67724 31.1943 7.02115 31.2823 7.39962C31.3746 7.79676 31.3763 8.27122 31.2861 8.8499L31.2795 8.89214V9.26293L31.5654 9.4264C31.8061 9.55528 31.9972 9.70284 32.1439 9.87179C32.3885 10.1532 32.5466 10.5108 32.6134 10.9348C32.6823 11.3709 32.6595 11.8898 32.5466 12.4772C32.4162 13.153 32.2054 13.7416 31.9207 14.2232C31.6588 14.6669 31.3252 15.0349 30.9292 15.3202C30.551 15.5911 30.1017 15.7969 29.5938 15.9286C29.1014 16.0579 28.5403 16.1232 27.9248 16.1232H27.5282C27.2446 16.1232 26.9691 16.2264 26.7529 16.4112C26.5362 16.5999 26.3926 16.8576 26.3486 17.1396L26.3188 17.3037L25.8168 20.5151L25.7939 20.633C25.788 20.6705 25.7777 20.6891 25.7625 20.7017C25.7489 20.7131 25.7293 20.7208 25.7103 20.7208H23.2616Z" fill="#253B80"/>
<path d="M31.8355 8.93506C31.8203 9.03324 31.803 9.13361 31.7834 9.23673C31.1112 12.7204 28.8121 13.9238 25.8756 13.9238H24.3805C24.0214 13.9238 23.7188 14.1871 23.6628 14.5447L22.8973 19.4463L22.6805 20.8356C22.6441 21.0704 22.8234 21.2821 23.058 21.2821H25.71C26.024 21.2821 26.2906 21.0518 26.3401 20.7391L26.3662 20.603L26.8655 17.4041L26.8976 17.2287C26.9464 16.9149 27.2137 16.6845 27.5277 16.6845H27.9243C30.4935 16.6845 32.5048 15.6314 33.0927 12.5838C33.3383 11.3107 33.2111 10.2477 32.5613 9.50002C32.3647 9.27458 32.1208 9.08754 31.8355 8.93506Z" fill="#008AEF"/>
<path d="M31.1328 8.65223C31.0302 8.62206 30.9242 8.59463 30.8155 8.56995C30.7063 8.54582 30.5944 8.52443 30.4792 8.50578C30.0761 8.43995 29.6344 8.40869 29.1612 8.40869H25.1669C25.0686 8.40869 24.9752 8.43118 24.8915 8.47177C24.7073 8.56117 24.5705 8.73726 24.5373 8.95281L23.6875 14.3864L23.6631 14.5449C23.7191 14.1873 24.0217 13.924 24.3808 13.924H25.8759C28.8124 13.924 31.1117 12.72 31.7837 9.23695C31.8037 9.13382 31.8206 9.03345 31.8358 8.93527C31.6658 8.84421 31.4816 8.76632 31.2833 8.69994C31.2345 8.68349 31.1839 8.66759 31.1328 8.65223Z" fill="#222D65"/>
<path d="M24.5376 8.95275C24.5707 8.73718 24.7077 8.56111 24.8918 8.47225C24.9761 8.43165 25.069 8.40917 25.1672 8.40917H29.1616C29.6348 8.40917 30.0765 8.44043 30.4795 8.50626C30.5948 8.5249 30.7068 8.5463 30.8159 8.57042C30.9246 8.59512 31.0305 8.62255 31.1332 8.6527C31.1842 8.66807 31.2347 8.68397 31.2841 8.69988C31.4825 8.76625 31.6667 8.84469 31.8367 8.93519C32.0367 7.64783 31.8351 6.7713 31.1457 5.9776C30.3857 5.10382 29.0138 4.72974 27.2585 4.72974H22.1623C21.8037 4.72974 21.498 4.99301 21.4424 5.3512L19.3199 18.9352C19.278 19.2039 19.4833 19.4464 19.7517 19.4464H22.898L23.6879 14.3863L24.5376 8.95275Z" fill="#253B80"/>
</svg>
