<svg width="10" height="11" viewBox="0 0 10 11" fill="none" xmlns="http://www.w3.org/2000/svg">
<path d="M4.15839 0.150064C4.03158 0.235465 3.80902 0.42697 3.63046 0.608123L3.31991 0.918671L3.3225 2.96311C3.3225 4.08626 3.31732 5.08001 3.30956 5.168C3.29921 5.30516 3.28886 5.33104 3.24745 5.33104C3.22157 5.33104 3.13358 5.34657 3.05077 5.36727C2.97055 5.38797 2.81268 5.4242 2.70399 5.44491C2.18382 5.55101 2.09066 5.57171 1.95868 5.60277C1.78529 5.64418 1.52909 5.70111 1.23406 5.75804C1.11243 5.78392 0.98045 5.81239 0.936456 5.82015C0.876934 5.83309 0.84588 5.86415 0.801885 5.95214C0.700957 6.16176 0.576738 6.61464 0.548271 6.88119L0.530156 7.04682L0.693194 7.0287C0.78377 7.01835 0.923517 6.99506 1.00115 6.97436C1.07879 6.95624 1.23665 6.92001 1.35052 6.89672C1.46439 6.87084 1.62743 6.8372 1.71283 6.81649C1.79823 6.79838 1.9535 6.76474 2.05702 6.74144C2.27181 6.69745 2.55131 6.63534 2.77386 6.58617C3.04042 6.52924 3.26557 6.48265 3.28886 6.48265C3.3018 6.48265 3.31474 6.78026 3.31732 7.17362L3.3225 7.86201L3.2164 7.88788C3.15946 7.90082 3.01713 7.93447 2.90326 7.95776C2.78939 7.98105 2.62118 8.01728 2.52801 8.03798C2.43485 8.0561 2.27181 8.09233 2.16571 8.11303C2.0596 8.13632 1.90174 8.17255 1.81634 8.19067C1.64036 8.23207 1.31947 8.29936 0.716485 8.42617C0.297245 8.51416 0.317948 8.50639 0.26619 8.63838C0.0953888 9.07314 -0.0521214 9.73047 0.0177519 9.73047C0.0436309 9.73047 0.250663 9.68906 0.470634 9.63989C0.556035 9.62178 0.719073 9.58555 0.83294 9.56226C0.946808 9.53896 1.08397 9.50791 1.13831 9.49238C1.19525 9.47944 1.29876 9.45874 1.37122 9.4458C1.44627 9.43286 1.61707 9.39663 1.75164 9.36816C1.88622 9.33711 2.02079 9.30864 2.04925 9.30347C2.07772 9.30088 2.14759 9.28276 2.20453 9.26982C2.26146 9.2543 2.34945 9.23359 2.39862 9.22583C2.44779 9.21806 2.5306 9.19995 2.57977 9.18701C2.62894 9.17407 2.71176 9.15596 2.76093 9.14819C3.37167 9.05244 3.58647 8.92822 3.86855 8.51933C4.1351 8.13373 4.39389 7.73261 4.41977 7.6705C4.44047 7.61874 4.44824 7.41171 4.44565 7.03388C4.44047 6.72592 4.44824 6.42055 4.456 6.35585C4.4767 6.22645 4.4767 6.22645 4.78207 6.15917C4.84418 6.14623 5.00722 6.11259 5.14179 6.08153C5.27636 6.05306 5.4187 6.02201 5.4601 6.01166L5.52998 5.99613V7.12704V8.25795L5.62832 8.24243C5.68008 8.23207 5.78877 8.20878 5.8664 8.19067C5.94404 8.17255 6.1019 8.13632 6.21577 8.11303C6.32964 8.08974 6.49785 8.0561 6.59102 8.03539C6.92227 7.96552 7.12412 7.92153 7.31563 7.88012C7.42173 7.85683 7.59253 7.8206 7.69087 7.7999C7.7918 7.77919 7.9419 7.74555 8.0273 7.72485C8.1127 7.70673 8.27574 7.6705 8.38961 7.64721C8.50347 7.62392 8.66651 7.58769 8.75191 7.56957C8.83731 7.55146 8.95377 7.52817 9.0107 7.51781C9.10128 7.50488 9.12198 7.48935 9.15821 7.40653C9.28502 7.11151 9.43771 6.53959 9.43771 6.3662C9.43771 6.29891 9.42994 6.28856 9.38077 6.29891C9.34713 6.30668 9.23326 6.32997 9.12716 6.35326C9.02105 6.37655 8.85284 6.41278 8.75191 6.43348C8.65357 6.45419 8.48277 6.48783 8.37667 6.51112C8.27056 6.53182 8.1127 6.56806 8.0273 6.58617C7.86685 6.6224 7.61324 6.67934 7.30269 6.74403C7.20435 6.76474 7.04907 6.80097 6.96109 6.82167C6.8731 6.83978 6.76958 6.8579 6.73335 6.8579H6.66865V6.30668V5.75287L6.81875 5.72181C6.89898 5.70628 7.0439 5.67523 7.14224 5.65453C7.23799 5.63382 7.40103 5.59759 7.50454 5.57689C7.60547 5.5536 7.76075 5.51996 7.84615 5.49925C8.10752 5.43973 8.30938 5.39832 8.35079 5.39315C8.39737 5.39056 8.60699 5.34398 8.82179 5.28963C8.9046 5.26893 9.00035 5.2534 9.03658 5.2534C9.08316 5.2534 9.11163 5.23011 9.14786 5.15506C9.2462 4.96097 9.43771 4.24671 9.43771 4.08626V4.01639L9.2902 4.05003C8.88389 4.14061 8.53194 4.21048 8.37667 4.23118C8.31197 4.23895 8.19034 4.26224 8.10494 4.28294C8.01954 4.30364 7.86426 4.33729 7.76333 4.36058C7.36739 4.44339 7.194 4.48221 7.0439 4.51585C6.9585 4.53397 6.83945 4.55726 6.77993 4.56761L6.66865 4.58572V2.55422V0.520134L6.53408 0.602947C6.27788 0.758221 6.08638 0.913495 5.80947 1.18781L5.52998 1.46213V3.14944V4.83934L5.47304 4.84969C5.33589 4.87816 5.01499 4.94803 4.87006 4.98167C4.78466 4.99979 4.66303 5.02826 4.59833 5.04378C4.53622 5.05672 4.4767 5.06449 4.46894 5.05672C4.46117 5.04896 4.456 3.90769 4.456 2.52058C4.456 0.297575 4.45082 -3.33786e-05 4.41718 -3.33786e-05C4.39648 0.00255394 4.28002 0.0672522 4.15839 0.150064Z" fill="#EE3322"/>
<path d="M9.26939 8.57642C9.19952 8.59454 9.04683 8.63077 8.93296 8.65406C8.81909 8.67994 8.65606 8.71358 8.57066 8.73428C8.48526 8.7524 8.32222 8.78604 8.20835 8.81192C8.09448 8.83521 7.93144 8.87144 7.84604 8.88956C7.76064 8.91026 7.6623 8.93096 7.62607 8.93614C7.58984 8.9439 7.4501 8.97496 7.31552 9.00343C7.18095 9.03448 6.95322 9.08106 6.81088 9.10953C6.53398 9.16387 6.29072 9.21822 6.02675 9.28292C5.87407 9.32174 5.86113 9.3295 5.81454 9.43043C5.67738 9.73321 5.504 10.4397 5.55575 10.4915C5.57904 10.5148 5.72655 10.4915 6.06039 10.4164C6.14579 10.3957 6.30107 10.3621 6.40458 10.3388C6.85747 10.243 6.95063 10.2223 7.12143 10.1861C7.22236 10.1654 7.33105 10.1421 7.36728 10.1369C7.40351 10.1292 7.54326 10.0981 7.67783 10.0671C7.8124 10.036 7.97544 9.99977 8.04014 9.98683C8.10483 9.97648 8.2394 9.94801 8.33774 9.92731C8.43867 9.90401 8.59395 9.87555 8.68711 9.86002C8.78028 9.84449 8.91485 9.81861 8.9899 9.80309L9.12447 9.77462L9.2021 9.57535C9.33926 9.21822 9.48418 8.53502 9.42207 8.54278C9.40914 8.54278 9.34185 8.55831 9.26939 8.57642Z" fill="#EE3322"/>
</svg>
