<svg width="14" height="15" viewBox="0 0 14 15" fill="none" xmlns="http://www.w3.org/2000/svg">
<path d="M5.89405 0.212721C5.71432 0.333767 5.39887 0.605204 5.14577 0.861967L4.7056 1.30213L4.70927 4.1999C4.70927 5.79184 4.70193 7.20037 4.69093 7.32508C4.67626 7.51949 4.66159 7.55617 4.6029 7.55617C4.56622 7.55617 4.4415 7.57818 4.32412 7.60753C4.21041 7.63687 3.98666 7.68822 3.8326 7.71757C3.09533 7.86796 2.96327 7.8973 2.7762 7.94132C2.53044 8.00001 2.16731 8.0807 1.74915 8.1614C1.57675 8.19808 1.38968 8.23843 1.32732 8.24944C1.24296 8.26778 1.19894 8.31179 1.13658 8.43651C0.993528 8.73362 0.817462 9.37553 0.777113 9.75334L0.751437 9.98809L0.982524 9.96242C1.11091 9.94775 1.30898 9.91473 1.41902 9.88539C1.52906 9.85971 1.75282 9.80836 1.91421 9.77535C2.07561 9.73867 2.30669 9.69098 2.42774 9.66164C2.54878 9.63596 2.76887 9.58828 2.91559 9.55526C3.22004 9.49291 3.61619 9.40487 3.93164 9.33518C4.30945 9.25448 4.62857 9.18846 4.66159 9.18846C4.67993 9.18846 4.69827 9.61028 4.70193 10.1678L4.70927 11.1435L4.55888 11.1802C4.47818 11.1986 4.27644 11.2462 4.11505 11.2793C3.95365 11.3123 3.71523 11.3636 3.58318 11.393C3.45113 11.4186 3.22004 11.47 3.06965 11.4993C2.91926 11.5323 2.69551 11.5837 2.57446 11.6094C2.32503 11.6681 1.87019 11.7634 1.01554 11.9432C0.421311 12.0679 0.450656 12.0569 0.377295 12.2439C0.135203 12.8602 -0.0738763 13.7919 0.0251613 13.7919C0.0618418 13.7919 0.355286 13.7332 0.667071 13.6635C0.788117 13.6378 1.0192 13.5865 1.1806 13.5534C1.34199 13.5204 1.5364 13.4764 1.61343 13.4544C1.69413 13.4361 1.84085 13.4067 1.94356 13.3884C2.04993 13.37 2.29202 13.3187 2.48276 13.2783C2.6735 13.2343 2.86424 13.194 2.90459 13.1866C2.94493 13.183 3.04397 13.1573 3.12467 13.139C3.20537 13.1169 3.33008 13.0876 3.39977 13.0766C3.46947 13.0656 3.58684 13.0399 3.65654 13.0216C3.72623 13.0032 3.84361 12.9776 3.9133 12.9666C4.77896 12.8308 5.08341 12.6548 5.48323 12.0752C5.86104 11.5287 6.22785 10.9601 6.26453 10.8721C6.29387 10.7987 6.30487 10.5053 6.30121 9.96975C6.29387 9.53326 6.30487 9.10042 6.31588 9.00872C6.34522 8.82532 6.34522 8.82532 6.77805 8.72995C6.86609 8.71161 7.09718 8.66393 7.28791 8.61991C7.47865 8.57956 7.6804 8.53554 7.73909 8.52087L7.83812 8.49886V10.1018V11.7047L7.97751 11.6827C8.05087 11.6681 8.20493 11.6351 8.31497 11.6094C8.42501 11.5837 8.64876 11.5323 8.81016 11.4993C8.97155 11.4663 9.20998 11.4186 9.34203 11.3893C9.81154 11.2903 10.0976 11.2279 10.3691 11.1692C10.5195 11.1362 10.7616 11.0848 10.901 11.0555C11.044 11.0262 11.2568 10.9785 11.3778 10.9491C11.4988 10.9234 11.7299 10.8721 11.8913 10.8391C12.0527 10.8061 12.2838 10.7547 12.4049 10.729C12.5259 10.7034 12.691 10.6704 12.7717 10.6557C12.9 10.6373 12.9294 10.6153 12.9807 10.498C13.1605 10.0798 13.3769 9.26916 13.3769 9.0234C13.3769 8.92803 13.3659 8.91335 13.2962 8.92803C13.2485 8.93903 13.0871 8.97204 12.9367 9.00505C12.7863 9.03807 12.5479 9.08942 12.4049 9.11876C12.2655 9.14811 12.0234 9.19579 11.873 9.22881C11.7226 9.25815 11.4988 9.3095 11.3778 9.33518C11.1504 9.38653 10.7909 9.46723 10.3507 9.55893C10.2114 9.58828 9.99127 9.63963 9.86656 9.66897C9.74184 9.69465 9.59512 9.72033 9.54377 9.72033H9.45207V8.93903V8.15407L9.66481 8.11005C9.77853 8.08804 9.98394 8.04402 10.1233 8.01468C10.259 7.98533 10.4901 7.93398 10.6369 7.90464C10.7799 7.87163 11 7.82394 11.121 7.7946C11.4915 7.71023 11.7776 7.65154 11.8363 7.64421C11.9023 7.64054 12.1994 7.57451 12.5039 7.49748C12.6213 7.46814 12.757 7.44613 12.8083 7.44613C12.8744 7.44613 12.9147 7.41312 12.9661 7.30674C13.1055 7.03164 13.3769 6.01926 13.3769 5.79184V5.6928L13.1678 5.74048C12.5919 5.86887 12.0931 5.9679 11.873 5.99725C11.7813 6.00825 11.6089 6.04126 11.4878 6.07061C11.3668 6.09995 11.1467 6.14764 11.0037 6.18065C10.4424 6.29803 10.1967 6.35305 9.98394 6.40073C9.86289 6.42641 9.69416 6.45942 9.60979 6.4741L9.45207 6.49977V3.62035V0.737253L9.26133 0.854631C8.89819 1.07471 8.62675 1.2948 8.23427 1.68361L7.83812 2.07243V4.464V6.85924L7.75743 6.87391C7.56302 6.91426 7.10818 7.0133 6.90277 7.06098C6.78172 7.08666 6.60932 7.12701 6.51762 7.14902C6.42959 7.16736 6.34522 7.17836 6.33422 7.16736C6.32322 7.15635 6.31588 5.53874 6.31588 3.57266C6.31588 0.421801 6.30854 -2.57492e-05 6.26086 -2.57492e-05C6.23151 0.00364208 6.06645 0.0953436 5.89405 0.212721Z" fill="#00E5C9"/>
<path d="M13.1383 12.1561C13.0392 12.1817 12.8228 12.2331 12.6614 12.2661C12.5 12.3028 12.2689 12.3505 12.1479 12.3798C12.0268 12.4055 11.7958 12.4532 11.6344 12.4899C11.473 12.5229 11.2419 12.5742 11.1208 12.5999C10.9998 12.6292 10.8604 12.6586 10.809 12.6659C10.7577 12.6769 10.5596 12.7209 10.3689 12.7613C10.1781 12.8053 9.85536 12.8713 9.65361 12.9117C9.26113 12.9887 8.91633 13.0657 8.54219 13.1574C8.32578 13.2125 8.30744 13.2235 8.24141 13.3665C8.047 13.7957 7.80124 14.7971 7.8746 14.8704C7.90762 14.9034 8.1167 14.8704 8.58988 14.764C8.71092 14.7347 8.931 14.687 9.07773 14.654C9.71964 14.5183 9.85169 14.4889 10.0938 14.4376C10.2368 14.4082 10.3909 14.3752 10.4422 14.3679C10.4936 14.3569 10.6917 14.3129 10.8824 14.2689C11.0731 14.2248 11.3042 14.1735 11.3959 14.1552C11.4876 14.1405 11.6784 14.1001 11.8178 14.0708C11.9608 14.0378 12.1809 13.9974 12.313 13.9754C12.445 13.9534 12.6357 13.9167 12.7421 13.8947L12.9329 13.8544L13.0429 13.5719C13.2373 13.0657 13.4427 12.0974 13.3547 12.1084C13.3363 12.1084 13.241 12.1304 13.1383 12.1561Z" fill="#00E5C9"/>
</svg>
