<svg width="17" height="19" viewBox="0 0 17 19" fill="none" xmlns="http://www.w3.org/2000/svg">
<path d="M7.19471 0.25975C6.97531 0.407507 6.59025 0.738842 6.2813 1.05227L5.744 1.58957L5.74848 5.12679C5.74848 7.07002 5.73952 8.78938 5.72609 8.94162C5.70818 9.17893 5.69027 9.2237 5.61863 9.2237C5.57386 9.2237 5.42162 9.25057 5.27834 9.28639C5.13954 9.32221 4.86641 9.38489 4.67836 9.42071C3.77838 9.60429 3.61719 9.64011 3.38884 9.69384C3.08884 9.76548 2.64557 9.86398 2.13514 9.96249C1.9247 10.0073 1.69634 10.0565 1.62023 10.0699C1.51724 10.0923 1.46351 10.1461 1.3874 10.2983C1.21277 10.661 0.997853 11.4445 0.948601 11.9057L0.917258 12.1923L1.19934 12.1609C1.35605 12.143 1.59784 12.1027 1.73216 12.0669C1.86649 12.0356 2.13962 11.9729 2.33663 11.9326C2.53364 11.8878 2.81572 11.8296 2.96347 11.7938C3.11123 11.7624 3.37988 11.7042 3.55898 11.6639C3.93061 11.5878 4.41418 11.4804 4.79925 11.3953C5.26043 11.2968 5.64997 11.2162 5.69027 11.2162C5.71266 11.2162 5.73505 11.7311 5.73952 12.4117L5.74848 13.6027L5.5649 13.6475C5.4664 13.6699 5.22013 13.7281 5.02312 13.7684C4.82611 13.8087 4.53508 13.8713 4.37389 13.9072C4.2127 13.9385 3.93061 14.0012 3.74704 14.037C3.56346 14.0773 3.29033 14.14 3.14257 14.1713C2.8381 14.243 2.2829 14.3594 1.23964 14.5788C0.514283 14.731 0.550103 14.7176 0.460554 14.9459C0.165039 15.6982 -0.0901788 16.8354 0.0307137 16.8354C0.0754887 16.8354 0.433688 16.7638 0.814276 16.6787C0.962033 16.6474 1.24412 16.5847 1.44113 16.5444C1.63814 16.5041 1.87544 16.4504 1.96947 16.4235C2.06798 16.4011 2.24708 16.3653 2.37245 16.3429C2.50229 16.3205 2.79781 16.2579 3.03064 16.2086C3.26347 16.1549 3.4963 16.1056 3.54555 16.0967C3.5948 16.0922 3.71569 16.0608 3.8142 16.0385C3.9127 16.0116 4.06494 15.9758 4.15001 15.9623C4.23508 15.9489 4.37836 15.9176 4.46344 15.8952C4.54851 15.8728 4.69179 15.8414 4.77686 15.828C5.83355 15.6623 6.20518 15.4474 6.69323 14.74C7.15441 14.0728 7.60216 13.3788 7.64694 13.2714C7.68276 13.1818 7.69619 12.8236 7.69171 12.1699C7.68276 11.6371 7.69619 11.1087 7.70962 10.9968C7.74544 10.7729 7.74544 10.7729 8.27379 10.6565C8.38125 10.6341 8.66333 10.5759 8.89616 10.5222C9.12899 10.4729 9.37525 10.4192 9.44689 10.4013L9.56779 10.3744V12.3311V14.2878L9.73793 14.2609C9.82748 14.243 10.0155 14.2027 10.1499 14.1713C10.2842 14.14 10.5573 14.0773 10.7543 14.037C10.9513 13.9967 11.2424 13.9385 11.4036 13.9027C11.9767 13.7818 12.3259 13.7057 12.6573 13.634C12.8408 13.5937 13.1364 13.5311 13.3065 13.4952C13.4811 13.4594 13.7408 13.4012 13.8886 13.3654C14.0363 13.334 14.3184 13.2714 14.5154 13.2311C14.7124 13.1908 14.9945 13.1281 15.1423 13.0967C15.29 13.0654 15.4915 13.0251 15.59 13.0072C15.7467 12.9848 15.7826 12.9579 15.8452 12.8147C16.0646 12.3042 16.3288 11.3147 16.3288 11.0147C16.3288 10.8983 16.3154 10.8804 16.2303 10.8983C16.1721 10.9117 15.9751 10.952 15.7915 10.9923C15.6079 11.0326 15.3169 11.0953 15.1423 11.1311C14.9721 11.1669 14.6766 11.2251 14.493 11.2654C14.3095 11.3013 14.0363 11.3639 13.8886 11.3953C13.611 11.458 13.1722 11.5565 12.6349 11.6684C12.4647 11.7042 12.1961 11.7669 12.0438 11.8027C11.8916 11.8341 11.7125 11.8654 11.6498 11.8654H11.5379V10.9117V9.95353L11.7976 9.8998C11.9364 9.87294 12.1871 9.81921 12.3573 9.78339C12.5229 9.74757 12.805 9.68488 12.9841 9.64906C13.1587 9.60877 13.4274 9.55056 13.5751 9.51474C14.0274 9.41176 14.3766 9.34012 14.4483 9.33116C14.5289 9.32668 14.8915 9.24609 15.2632 9.15206C15.4064 9.11624 15.5721 9.08938 15.6348 9.08938C15.7154 9.08938 15.7646 9.04908 15.8273 8.91923C15.9975 8.58342 16.3288 7.34763 16.3288 7.07002V6.94913L16.0736 7.00734C15.3706 7.16405 14.7617 7.28494 14.493 7.32076C14.3811 7.3342 14.1707 7.37449 14.0229 7.41031C13.8751 7.44613 13.6065 7.50434 13.4319 7.54464C12.7468 7.68792 12.4468 7.75508 12.1871 7.81329C12.0394 7.84463 11.8334 7.88493 11.7304 7.90284L11.5379 7.93418V4.41935V0.900032L11.3051 1.04331C10.8618 1.31196 10.5304 1.58061 10.0514 2.05523L9.56779 2.52984V5.44917V8.37298L9.46928 8.39089C9.23197 8.44014 8.67676 8.56103 8.42602 8.61924C8.27826 8.65058 8.06782 8.69983 7.95589 8.7267C7.84843 8.74909 7.74544 8.76252 7.73201 8.74909C7.71858 8.73565 7.70962 6.76108 7.70962 4.36114C7.70962 0.514967 7.70067 5.53131e-05 7.64246 5.53131e-05C7.60664 0.00453186 7.40515 0.11647 7.19471 0.25975Z" fill="#008AEF"/>
<path d="M16.0376 14.8387C15.9167 14.87 15.6525 14.9327 15.4555 14.973C15.2585 15.0178 14.9764 15.076 14.8287 15.1118C14.6809 15.1431 14.3988 15.2013 14.2018 15.2461C14.0048 15.2864 13.7227 15.3491 13.575 15.3804C13.4272 15.4163 13.2571 15.4521 13.1944 15.461C13.1317 15.4745 12.8899 15.5282 12.6571 15.5775C12.4243 15.6312 12.0302 15.7118 11.784 15.761C11.3049 15.8551 10.884 15.9491 10.4273 16.061C10.1631 16.1282 10.1407 16.1416 10.0601 16.3162C9.82284 16.8401 9.52285 18.0625 9.6124 18.152C9.65269 18.1923 9.90791 18.152 10.4855 18.0222C10.6333 17.9864 10.9019 17.9281 11.081 17.8878C11.8646 17.7222 12.0258 17.6864 12.3213 17.6237C12.4959 17.5879 12.684 17.5476 12.7466 17.5386C12.8093 17.5252 13.0511 17.4714 13.2839 17.4177C13.5168 17.364 13.7989 17.3013 13.9108 17.2789C14.0227 17.261 14.2556 17.2117 14.4257 17.1759C14.6003 17.1356 14.869 17.0864 15.0302 17.0595C15.1914 17.0326 15.4242 16.9879 15.554 16.961L15.7869 16.9118L15.9212 16.567C16.1585 15.9491 16.4092 14.767 16.3018 14.7805C16.2794 14.7805 16.163 14.8073 16.0376 14.8387Z" fill="#008AEF"/>
</svg>
