<svg width="53" height="37" viewBox="0 0 53 37" fill="none" xmlns="http://www.w3.org/2000/svg">
<rect x="0.5" y="0.5" width="52" height="36" rx="12" fill="white" stroke="#172B85"/>
<path fill-rule="evenodd" clip-rule="evenodd" d="M16.2859 24.8874H13.1357L10.7735 15.7886C10.6614 15.37 10.4233 15 10.0731 14.8256C9.19915 14.3873 8.23612 14.0386 7.18555 13.8626V13.5123H12.2603C12.9606 13.5123 13.4859 14.0386 13.5735 14.6497L14.7992 21.213L17.9478 13.5123H21.0105L16.2859 24.8874ZM22.7614 24.8874H19.7863L22.2361 13.5123H25.2112L22.7614 24.8874ZM29.0603 16.6636C29.1478 16.0509 29.6731 15.7006 30.2859 15.7006C31.249 15.6127 32.298 15.7886 33.1735 16.2253L33.6988 13.7762C32.8233 13.4259 31.8603 13.25 30.9863 13.25C28.0988 13.25 25.9976 14.8256 25.9976 17.0124C25.9976 18.6759 27.4859 19.5494 28.5365 20.0756C29.6731 20.6003 30.1108 20.9506 30.0233 21.4753C30.0233 22.2624 29.1478 22.6127 28.2739 22.6127C27.2233 22.6127 26.1727 22.3503 25.2112 21.9121L24.6859 24.3627C25.7365 24.7994 26.8731 24.9753 27.9237 24.9753C31.1614 25.0618 33.1735 23.4877 33.1735 21.125C33.1735 18.1497 29.0603 17.9753 29.0603 16.6636ZM43.5855 24.8874L41.2233 13.5123H38.6859C38.1606 13.5123 37.6354 13.8626 37.4603 14.3873L33.0859 24.8874H36.1486L36.7599 23.2253H40.5229L40.8731 24.8874H43.5855ZM39.1237 16.5756L39.9976 20.8627H37.5478L39.1237 16.5756Z" fill="#172B85"/>
</svg>
